<svg xmlns="http://www.w3.org/2000/svg" width="1000" height="200" viewBox="0 0 1000 200"><g id="sep-2-fefe00" data-colour="#fefe00" transform="translate(0.000000,200.000000) scale(0.100000,-0.100000)" fill="#fefe00"><path d="M2403 1562 l-53 -3 16 -30 15 -31 -20 -56 c-10 -31 -37 -106 -60 -167 -22 -60 -76 -209 -120 -330 l-79 -220 95 -3 96 -3 10 10 9 9 -22 29 -21 30 16 41 17 42 69 0 69 0 1 -57 c1 -32 2 -66 2 -75 l0 -18 99 0 100 0 -25 34 -26 33 -5 44 c-3 24 -8 91 -11 149 -3 58 -7 137 -10 175 -3 39 -7 104 -10 145 -2 41 -7 114 -11 163 l-6 87 -17 1 c-9 0 -27 1 -41 2 -14 1 -49 1 -77 -1z m27 -432 c1 -63 1 -121 1 -127 l-1 -13 -45 0 -45 0 0 14 c0 8 16 61 35 118 20 56 38 109 41 117 9 28 12 4 14 -109z"/><path d="M2847 1535 l-46 -35 -6 -33 c-3 -17 -23 -174 -44 -347 l-40 -315 37 -37 36 -38 129 0 128 0 44 43 44 42 11 94 11 95 -13 8 c-79 47 -118 67 -121 60 -3 -4 -8 -38 -11 -77 -4 -38 -10 -85 -13 -102 l-5 -33 -59 0 -59 0 0 38 c0 20 4 66 9 102 10 72 13 91 37 303 l17 147 60 0 59 0 -6 -82 -7 -83 63 -37 63 -37 6 17 c3 9 9 58 13 107 4 50 9 106 12 125 l6 36 -38 37 -38 37 -117 0 -116 0 -46 -35z"/><path d="M3277 1564 c-3 -4 4 -21 17 -38 l23 -31 -36 -373 c-20 -205 -35 -375 -32 -378 2 -2 46 -4 98 -4 l93 0 0 13 c0 8 -10 22 -21 33 l-21 19 7 103 c9 142 14 162 38 162 l12 0 40 -163 40 -162 90 -1 c50 0 96 2 104 5 l14 4 -36 31 -37 31 -45 170 c-24 93 -43 170 -42 171 1 1 28 18 60 38 l57 37 0 32 c1 18 5 77 10 132 l9 100 -39 38 -39 37 -179 0 c-98 0 -181 -3 -185 -6z m293 -151 c0 -21 -3 -62 -6 -91 l-7 -52 -59 -36 c-73 -45 -71 -49 -58 82 5 60 10 115 10 122 l0 12 60 0 60 0 0 -37z"/><path d="M3807 1564 c-4 -4 5 -20 18 -36 l25 -29 -5 -47 c-11 -102 -46 -683 -42 -695 l3 -11 230 3 c258 3 247 1 210 40 l-28 30 6 104 7 105 -67 36 c-36 20 -68 36 -69 34 -5 -6 -15 -114 -15 -170 l0 -58 -65 0 -65 0 6 108 c3 59 7 113 10 120 l3 12 46 0 45 0 0 60 0 60 -46 0 -47 0 7 53 c3 28 6 78 6 110 l0 57 63 0 63 0 -4 -74 -4 -73 60 -37 c33 -20 65 -36 71 -36 l11 0 0 73 c1 39 3 98 7 130 l6 59 -39 39 -38 39 -181 0 c-100 0 -185 -3 -188 -6z"/><path d="M4600 1562 c0 -5 12 -19 26 -33 l26 -24 -6 -195 c-3 -107 -7 -276 -8 -375 l-3 -180 238 -3 237 -2 0 8 c0 5 -13 21 -30 37 l-29 28 -3 105 -3 105 -60 33 c-33 19 -63 34 -67 34 -4 0 -9 -51 -10 -112 l-3 -113 -60 0 -60 0 -2 118 -1 117 49 0 49 0 0 60 0 60 -45 0 -45 0 0 109 0 109 13 4 c6 2 32 4 57 4 l45 -1 3 -77 3 -77 63 -36 c35 -19 66 -35 69 -35 4 0 7 62 7 138 l0 138 -42 32 -42 32 -183 0 -183 0 0 -8z"/><path d="M5120 1564 c0 -3 11 -20 25 -38 l25 -33 0 -371 0 -372 100 0 c111 0 112 1 71 45 l-30 30 -1 195 c-1 107 -1 200 0 205 1 6 39 -98 84 -230 l84 -240 67 0 67 0 -1 141 c-1 78 -4 152 -6 165 -2 13 -6 130 -10 259 -3 129 -9 238 -11 242 -6 9 -194 11 -194 2 0 -4 16 -21 35 -38 l36 -31 -3 -140 -3 -140 -58 178 -58 177 -110 0 c-60 0 -109 -3 -109 -6z"/><path d="M5930 1563 c0 -4 11 -18 24 -32 l24 -26 6 -55 c3 -30 8 -120 11 -200 4 -80 8 -156 10 -170 2 -14 7 -94 11 -177 l7 -153 46 -1 c25 -1 101 -3 168 -4 l123 -1 39 35 39 36 -24 295 c-13 162 -24 314 -26 337 -2 52 -3 53 -52 92 l-39 31 -183 0 c-101 0 -184 -3 -184 -7z m320 -138 c0 -32 27 -419 35 -497 l6 -58 -66 0 -65 0 -1 48 c0 26 -2 56 -4 67 -4 25 -13 167 -21 338 l-7 127 62 0 61 0 0 -25z"/><path d="M6596 1562 c-3 -6 4 -22 15 -36 l21 -27 -46 -362 c-26 -199 -46 -370 -46 -379 l0 -18 106 0 106 0 -32 36 -31 36 3 37 4 36 70 3 70 3 24 -76 24 -75 35 -2 c77 -4 151 -4 151 1 0 3 -15 20 -32 39 l-33 33 -116 377 -115 377 -86 3 -86 3 -6 -9z m174 -423 c17 -57 30 -112 30 -121 l0 -18 -46 0 -47 0 7 93 c8 101 16 160 23 154 2 -2 17 -51 33 -108z"/><path d="M7091 1538 l-41 -33 5 -50 c8 -80 17 -157 24 -205 l6 -45 140 -77 139 -76 7 -20 c4 -11 11 -56 15 -101 l7 -82 -49 5 c-27 2 -54 5 -61 5 -12 1 -18 23 -28 108 l-7 53 -74 39 -74 38 0 -19 c0 -22 30 -272 33 -274 1 -1 22 -18 45 -38 l44 -36 129 0 130 0 35 38 34 37 -4 20 c-3 11 -12 77 -22 146 -20 155 -3 132 -162 215 -153 78 -147 72 -157 182 l-7 82 60 0 60 0 7 -62 c4 -35 11 -71 17 -81 9 -17 117 -77 138 -77 l11 0 -5 18 c-2 9 -7 40 -11 67 -6 51 -11 90 -20 148 l-5 34 -41 33 -41 33 -118 3 -118 4 -41 -32z"/><path d="M490 1550 c0 -6 7 -21 16 -34 l15 -24 -92 -359 c-51 -197 -98 -382 -105 -411 l-13 -53 102 7 c121 8 112 3 82 45 l-23 34 50 203 c28 111 52 201 53 200 3 -4 15 -318 15 -405 l0 -73 8 0 c8 0 51 87 183 368 28 61 54 110 57 108 4 -4 -27 -146 -74 -338 -13 -53 -24 -106 -24 -117 l0 -20 88 6 c103 7 97 3 82 45 l-13 34 11 49 c6 28 45 200 87 384 41 183 75 340 75 347 l0 14 -126 0 -126 0 27 -36 28 -36 -74 -154 c-41 -84 -77 -153 -81 -153 l-8 -1 7 190 6 190 -116 0 -117 0 0 -10z"/><path d="M1290 1551 c0 -6 5 -21 11 -35 l12 -25 -68 -163 c-37 -90 -110 -264 -162 -388 -53 -124 -98 -231 -100 -238 l-6 -13 103 3 c113 3 118 6 94 47 l-17 28 6 24 c3 13 12 32 19 41 l13 17 68 7 67 7 0 -82 0 -81 83 0 82 0 15 10 14 9 -24 26 -25 27 0 391 0 392 -92 3 -93 3 0 -10z m49 -433 c-1 -67 -4 -128 -6 -135 l-5 -13 -48 0 -48 0 51 135 c28 74 53 135 55 135 2 0 2 -55 1 -122z"/><path d="M1774 1529 l-42 -31 -27 -144 c-33 -173 -38 -156 76 -228 52 -33 102 -66 112 -75 l19 -15 -7 -50 c-3 -27 -8 -60 -10 -73 -3 -13 -7 -34 -10 -48 l-5 -25 -62 0 -61 0 6 43 c3 23 9 60 12 82 l7 41 -62 38 c-34 21 -63 36 -64 35 -2 -2 -16 -71 -31 -152 l-27 -149 33 -34 33 -34 130 0 131 0 47 43 46 42 26 150 25 150 -24 20 c-13 11 -58 40 -100 65 -42 25 -86 52 -97 61 l-20 15 12 75 c7 41 17 84 21 97 l9 22 56 0 57 0 -7 -47 c-4 -27 -9 -62 -12 -79 l-5 -31 62 -37 c75 -44 64 -56 89 102 l21 131 -28 36 -28 35 -130 0 -130 -1 -41 -30z"/><path d="M7595 1530 l-29 -30 51 -350 51 -351 44 -39 43 -39 100 -2 c55 -1 116 -1 135 -1 l35 2 31 33 31 34 -16 99 -16 99 -65 37 c-36 21 -71 38 -79 38 l-13 0 5 -27 c17 -89 29 -184 24 -189 -3 -4 -32 -2 -64 2 l-58 9 -42 270 c-23 149 -42 282 -42 298 l-1 27 54 0 c65 0 63 2 77 -92 l11 -75 75 -43 c41 -23 76 -40 77 -39 2 2 -8 70 -23 151 l-26 147 -40 30 -40 30 -131 1 -130 0 -29 -30z"/><path d="M8116 1531 l-28 -30 5 -54 c4 -30 11 -74 16 -98 5 -24 12 -62 16 -84 3 -22 23 -138 44 -259 l39 -219 43 -37 44 -38 130 -5 130 -5 37 38 38 39 -5 13 c-2 7 -34 166 -71 353 l-66 340 -41 37 -42 37 -131 1 -130 0 -28 -29z m256 -176 c61 -316 98 -510 98 -517 l0 -9 -62 3 -63 3 -41 225 c-24 124 -48 255 -55 292 -6 36 -10 72 -7 80 l6 13 53 0 53 0 18 -90z"/><path d="M8568 1527 l32 -32 39 -185 c21 -102 58 -279 81 -395 23 -116 44 -212 46 -214 2 -3 50 -6 106 -7 l102 -4 -40 41 -39 40 -26 122 c-45 206 -22 200 96 -24 49 -95 94 -173 100 -174 5 -2 52 -6 103 -9 l92 -5 0 8 c0 4 -20 21 -44 38 l-43 30 -48 89 c-26 49 -70 131 -98 183 l-51 95 47 41 46 41 -29 124 c-16 69 -32 134 -34 146 l-5 20 -45 32 -44 32 -188 0 -188 0 32 -33z m325 -164 c9 -43 17 -88 17 -100 l0 -21 -42 -31 c-57 -42 -59 -40 -84 76 -11 55 -24 112 -28 126 l-6 27 62 0 63 0 18 -77z"/><path d="M9100 1525 l34 -35 93 -397 c51 -218 96 -400 100 -404 5 -4 82 -10 173 -13 l166 -5 27 34 c37 47 53 -31 -137 702 l-21 82 -47 35 -47 36 -187 0 -188 0 34 -35z m384 -390 c42 -168 76 -310 76 -315 l0 -11 -62 3 -62 3 -7 30 c-3 17 -36 153 -73 303 -36 150 -66 277 -66 282 l0 10 59 0 59 0 76 -305z"/></g><g id="sep-3-050502" data-colour="#050502" transform="translate(0.000000,200.000000) scale(0.100000,-0.100000)" fill="#050502"><path d="M2899 1591 l-45 -7 -41 -31 c-22 -18 -45 -39 -52 -47 l-12 -15 -45 -348 c-47 -363 -47 -364 -66 -345 l-11 11 -24 368 c-13 202 -26 378 -29 391 l-4 22 -118 0 -118 0 -12 -12 c-15 -15 -15 -49 -2 -80 l11 -23 -131 -354 c-71 -195 -132 -356 -135 -359 -8 -9 -7 6 22 182 l27 169 -30 24 c-16 13 -22 21 -13 18 l16 -6 20 18 21 18 21 140 c12 77 21 150 21 162 l0 23 -36 40 -36 40 -147 0 -146 0 -56 -44 -57 -44 -21 -119 c-12 -65 -26 -137 -31 -160 l-10 -42 10 -25 c5 -14 15 -26 22 -26 7 -1 1 -7 -14 -15 -15 -8 -29 -23 -32 -33 -12 -36 -56 -278 -56 -304 0 -32 -7 -35 -26 -10 l-13 17 -1 371 c0 204 -3 386 -6 403 l-7 31 -117 0 -118 0 -13 -16 -13 -16 12 -41 11 -42 -91 -215 c-50 -118 -118 -280 -151 -360 -95 -232 -95 -219 9 249 l87 392 -12 25 -11 24 -143 0 -144 0 -18 -20 -17 -19 21 -44 22 -45 -23 -46 c-31 -64 -35 -59 -30 43 l4 89 -11 21 -12 21 -134 0 -135 0 -20 -20 -20 -20 11 -27 c5 -15 14 -32 19 -38 l9 -10 -104 -405 -104 -404 5 -23 c4 -13 14 -28 23 -32 l17 -9 104 5 c58 3 113 10 122 14 l17 9 6 -10 c3 -5 19 -10 34 -10 l28 0 15 18 c8 9 21 32 28 50 7 18 17 35 23 39 l10 6 -7 -18 -7 -18 12 -35 11 -34 246 6 246 6 20 20 21 20 -18 50 c-21 60 -17 70 29 70 l34 0 0 -69 0 -69 14 -11 13 -11 107 4 108 4 19 18 c11 10 19 25 18 33 -3 35 3 34 41 -8 l40 -43 147 7 148 8 58 50 59 50 -6 -34 -6 -34 9 -15 10 -15 123 3 c68 2 131 8 140 13 l18 10 0 37 -1 37 -14 19 c-22 29 -19 36 19 36 l35 0 6 -47 c3 -27 9 -59 13 -73 l7 -25 109 -3 108 -3 24 16 24 15 0 20 c0 28 11 25 45 -10 l29 -30 147 0 148 0 55 48 55 47 10 65 c6 36 12 94 13 129 l3 65 -70 42 -70 43 -26 0 -26 1 -15 -17 -16 -18 -6 -65 c-4 -36 -9 -77 -12 -92 l-6 -28 -14 0 -14 0 0 28 c0 15 11 122 25 237 14 116 25 216 25 223 l0 12 19 0 19 0 -6 -65 -5 -65 13 -15 c7 -8 46 -36 86 -61 l73 -45 19 10 20 11 11 67 c6 38 13 100 16 138 4 39 9 83 12 98 l5 29 9 -9 9 -9 -35 -344 c-19 -190 -35 -364 -35 -387 l0 -42 15 -15 16 -15 117 6 117 5 13 17 13 16 10 -17 9 -17 375 0 374 -1 25 10 25 9 7 36 6 36 -27 29 -28 29 6 99 5 98 -7 13 c-5 7 -42 32 -82 55 l-74 41 -3 43 c-4 50 -3 50 60 12 26 -16 57 -30 68 -30 l20 0 14 33 13 33 5 142 4 141 -43 43 -44 43 -208 0 -209 0 -21 -19 -22 -20 5 -13 c9 -21 -4 -15 -45 22 l-39 35 -194 0 -193 0 -37 -25 -38 -25 -30 25 -30 25 -96 -1 c-53 -1 -118 -5 -143 -8z m-378 -30 l17 -1 6 -87 c4 -49 9 -122 11 -163 3 -41 7 -106 10 -145 3 -38 7 -117 10 -175 3 -58 8 -125 11 -149 l5 -44 26 -33 25 -34 -100 0 -99 0 0 18 c0 9 -1 43 -2 75 l-1 57 -69 0 -69 0 -17 -42 -16 -41 21 -30 22 -29 -9 -9 -10 -10 -96 3 -95 3 79 220 c44 121 98 270 120 330 23 61 50 136 60 167 l20 56 -15 31 -16 30 53 3 c28 2 63 2 77 1 14 -1 32 -2 41 -2z m643 -28 l38 -37 -6 -36 c-3 -19 -8 -75 -12 -125 -4 -49 -10 -98 -13 -107 l-6 -17 -63 37 -63 37 7 83 6 82 -59 0 -60 0 -17 -147 c-24 -212 -27 -231 -37 -303 -5 -36 -9 -82 -9 -102 l0 -38 59 0 59 0 5 33 c3 17 9 64 13 102 3 39 8 73 11 77 3 7 42 -13 121 -60 l13 -8 -11 -95 -11 -94 -44 -42 -44 -43 -128 0 -129 0 -36 38 -37 37 40 315 c21 173 41 330 44 347 l6 33 46 35 46 35 116 0 117 0 38 -37z m516 0 l39 -38 -9 -100 c-5 -55 -9 -114 -10 -132 l0 -32 -57 -37 c-32 -20 -59 -37 -60 -38 -1 -1 18 -78 42 -171 l45 -170 37 -31 36 -31 -14 -4 c-8 -3 -54 -5 -104 -5 l-90 1 -40 162 -40 163 -12 0 c-24 0 -29 -20 -38 -162 l-7 -103 21 -19 c11 -11 21 -25 21 -33 l0 -13 -93 0 c-52 0 -96 2 -98 4 -3 3 12 173 32 378 l36 373 -23 31 c-32 44 -32 44 168 44 l179 0 39 -37z m534 -2 l39 -39 -6 -59 c-4 -32 -6 -91 -7 -130 l0 -73 -11 0 c-6 0 -38 16 -71 36 l-60 37 4 73 4 74 -63 0 -63 0 0 -57 c0 -32 -3 -82 -6 -110 l-7 -53 47 0 46 0 0 -60 0 -60 -45 0 -46 0 -3 -12 c-3 -7 -7 -61 -10 -120 l-6 -108 65 0 65 0 0 58 c0 56 10 164 15 170 1 2 33 -14 69 -34 l67 -36 -7 -105 -6 -104 28 -30 c37 -39 48 -37 -210 -40 l-230 -3 -3 11 c-4 12 31 593 42 695 l5 47 -25 29 c-35 41 -32 42 170 42 l181 0 38 -39z m-3497 -161 l-7 -190 8 1 c4 0 40 69 81 153 l74 154 -28 36 -27 36 126 0 126 0 0 -14 c0 -7 -34 -164 -75 -347 -42 -184 -81 -356 -87 -384 l-11 -49 13 -34 c15 -42 21 -38 -82 -45 l-88 -6 0 20 c0 11 11 64 24 117 47 192 78 334 74 338 -3 2 -29 -47 -57 -108 -132 -281 -175 -368 -183 -368 l-8 0 0 73 c0 87 -12 401 -15 405 -1 1 -25 -89 -53 -200 l-50 -203 23 -34 c30 -42 39 -37 -82 -45 l-102 -7 13 53 c7 29 54 214 105 411 l92 359 -15 24 c-9 13 -16 28 -16 34 l0 10 117 0 116 0 -6 -190z m758 -207 l0 -391 25 -27 24 -26 -14 -9 -15 -10 -82 0 -83 0 0 81 0 82 -67 -7 -68 -7 -13 -17 c-7 -9 -16 -28 -19 -41 l-6 -24 17 -28 c24 -41 19 -44 -94 -47 l-103 -3 6 13 c2 7 47 114 100 238 52 124 125 298 162 388 l68 163 -12 25 c-6 14 -11 29 -11 35 l0 10 93 -3 92 -3 0 -392z m628 362 l28 -36 -21 -131 c-25 -158 -14 -146 -89 -102 l-62 37 5 31 c3 17 8 52 12 79 l7 47 -57 0 -56 0 -9 -22 c-4 -13 -14 -56 -21 -97 l-12 -75 20 -15 c11 -9 55 -36 97 -61 42 -25 87 -54 100 -65 l24 -20 -25 -150 -26 -150 -46 -42 -47 -43 -131 0 -130 0 -33 34 -33 34 27 149 c15 81 29 150 31 152 1 1 30 -14 64 -35 l62 -38 -7 -41 c-3 -22 -9 -59 -12 -82 l-6 -43 61 0 62 0 5 25 c3 14 7 35 10 48 2 13 7 46 10 73 l7 50 -19 15 c-10 9 -60 42 -112 75 -114 72 -109 55 -76 228 l27 144 42 31 41 30 130 1 130 0 28 -35z m1676 -29 l12 -15 -22 -335 -23 -336 -13 0 c-19 0 -28 23 -67 174 l-37 139 13 9 c7 5 27 17 45 29 l32 20 10 32 c10 30 28 258 23 285 -4 16 13 15 27 -2z m268 -172 l-2 -64 -18 0 -18 0 2 53 c1 28 6 60 11 70 l9 18 9 -6 10 -6 -3 -65z m-2123 -3 l-7 -69 42 -27 c22 -15 41 -30 41 -32 0 -3 -12 3 -27 12 -14 10 -42 27 -61 38 l-34 20 6 55 c7 63 12 72 32 72 l14 0 -6 -69z m2106 -300 c0 -15 -3 -49 -6 -75 l-7 -46 -13 0 -14 0 0 38 c0 20 3 54 6 75 l7 37 13 0 14 0 0 -29z m-2180 -16 l12 -15 -7 -56 -7 -55 -14 -6 c-23 -9 -25 -1 -18 76 7 73 12 82 34 56z"/><path d="M2416 1239 c-3 -8 -21 -61 -41 -117 -19 -57 -35 -110 -35 -118 l0 -14 45 0 45 0 1 13 c2 33 -3 242 -7 246 -2 2 -6 -2 -8 -10z"/><path d="M3450 1438 c0 -7 -5 -62 -10 -122 -13 -131 -15 -127 58 -82 l59 36 7 52 c3 29 6 70 6 91 l0 37 -60 0 -60 0 0 -12z"/><path d="M1283 1105 l-51 -135 48 0 48 0 5 13 c5 14 10 257 5 257 -2 0 -27 -61 -55 -135z"/><path d="M4570 1587 c-14 -7 -26 -20 -28 -30 l-3 -17 26 -34 25 -33 -10 -369 -10 -368 15 -23 15 -23 390 0 389 1 16 22 15 21 16 -22 15 -22 89 0 90 0 16 25 17 25 -8 208 c-3 114 -10 303 -14 421 l-8 213 -14 9 -14 8 -241 0 -241 0 -37 -19 -38 -19 -31 20 -32 19 -190 0 -190 0 -25 -13z m438 -49 l42 -32 0 -138 c0 -76 -3 -138 -7 -138 -3 0 -34 16 -69 35 l-63 36 -3 77 -3 77 -45 1 c-25 0 -51 -2 -57 -4 l-13 -4 0 -109 0 -109 45 0 45 0 0 -60 0 -60 -49 0 -49 0 1 -117 2 -118 60 0 60 0 3 113 c1 61 6 112 10 112 4 0 34 -15 67 -34 l60 -33 3 -105 3 -105 29 -28 c17 -16 30 -32 30 -37 l0 -8 -237 2 -238 3 3 180 c1 99 5 268 8 375 l6 195 -26 24 c-14 14 -26 28 -26 33 l0 8 183 0 183 0 42 -32z m389 -145 l58 -178 3 140 3 140 -36 31 c-19 17 -35 34 -35 38 0 9 188 7 194 -2 2 -4 8 -113 11 -242 4 -129 8 -246 10 -259 2 -13 5 -87 6 -165 l1 -141 -67 0 -67 0 -84 240 c-45 132 -83 236 -84 230 -1 -5 -1 -98 0 -205 l1 -195 30 -30 c41 -44 40 -45 -71 -45 l-100 0 0 372 0 371 -25 33 c-35 45 -37 44 84 44 l110 0 58 -177z m-294 -255 l3 -308 -8 0 -8 0 0 104 0 104 -17 13 c-9 8 -46 30 -82 50 l-66 35 -3 43 -3 43 54 -31 c30 -17 62 -31 70 -31 l16 0 16 30 15 29 1 133 c3 215 8 117 12 -214z m-251 185 l4 -63 -18 0 -18 0 0 63 c0 104 25 103 32 0z m-4 -345 l-3 -73 -10 0 -10 0 -3 73 -3 72 16 0 16 0 -3 -72z"/><path d="M5898 1589 c-14 -6 -29 -17 -32 -26 l-7 -16 30 -37 30 -37 19 -369 c22 -396 22 -401 59 -415 l24 -9 172 0 172 0 53 52 54 52 -3 -25 c-4 -32 8 -66 25 -72 17 -7 255 -12 259 -6 43 59 43 61 6 104 l-31 35 16 6 c9 3 22 4 29 1 l13 -5 13 -53 14 -53 23 -23 23 -23 105 0 105 0 19 25 c24 31 30 31 61 1 l26 -23 149 -7 150 -7 57 60 56 60 34 -35 c18 -19 50 -46 71 -60 l37 -26 144 -5 143 -6 50 57 c59 67 51 66 105 15 24 -22 58 -49 74 -60 l30 -19 141 0 141 0 47 50 c51 54 60 56 69 13 3 -16 15 -38 27 -50 l21 -23 117 0 118 0 11 11 11 11 25 -16 25 -17 130 2 c72 0 135 -1 139 -4 5 -3 88 -7 186 -8 l177 -2 45 49 c25 27 48 59 51 72 l6 23 -87 337 c-48 185 -92 354 -98 375 l-9 37 -61 46 -61 46 -224 -4 -224 -3 -12 -18 -13 -17 -26 20 -25 20 -199 0 -198 0 -44 -11 -43 -10 -14 12 -13 11 -165 -4 -165 -3 -40 -39 -40 -39 -52 42 -53 42 -163 -3 -162 -3 -40 -39 -39 -38 -14 8 c-7 4 -31 23 -54 41 l-41 33 -157 0 -157 0 -47 -44 -46 -44 17 -158 17 -159 32 -27 31 -27 -26 -10 c-15 -6 -27 -13 -27 -16 0 -3 7 -67 16 -141 8 -75 13 -138 10 -141 -5 -5 -13 22 -153 476 l-88 283 -23 9 c-13 5 -60 9 -105 8 l-82 0 -35 -12 -35 -12 -3 -17 -3 -17 21 -29 22 -30 -36 -278 c-38 -287 -45 -338 -51 -332 -2 2 -15 145 -30 318 l-26 314 -17 20 c-9 10 -35 32 -56 47 l-39 29 -191 -1 -191 -1 -27 -9z m438 -50 c49 -39 50 -40 52 -92 2 -23 13 -175 26 -337 l24 -295 -39 -36 -39 -35 -123 1 c-67 1 -143 3 -168 4 l-46 1 -7 153 c-4 83 -9 163 -11 177 -2 14 -6 90 -10 170 -3 80 -8 170 -11 200 l-6 55 -24 26 c-37 39 -36 39 160 39 l183 0 39 -31z m553 -351 l116 -377 33 -33 c17 -19 32 -36 32 -39 0 -5 -74 -5 -151 -1 l-35 2 -24 75 -24 76 -70 -3 -70 -3 -4 -36 -3 -37 31 -36 32 -36 -106 0 -106 0 0 18 c0 9 20 180 46 379 l46 362 -21 27 c-11 14 -18 30 -15 36 l6 9 86 -3 86 -3 115 -377z m520 342 l41 -33 5 -34 c9 -58 14 -97 20 -148 4 -27 9 -58 11 -67 l5 -18 -11 0 c-21 0 -129 60 -138 77 -6 10 -13 46 -17 81 l-7 62 -60 0 -60 0 7 -82 c10 -110 4 -104 157 -182 159 -83 142 -60 162 -215 10 -69 19 -135 22 -146 l4 -20 -34 -37 -35 -38 -130 0 -129 0 -44 36 c-23 20 -44 37 -45 38 -3 2 -33 252 -33 274 l0 19 74 -38 74 -39 7 -53 c10 -85 16 -107 28 -108 7 0 34 -3 61 -5 l49 -5 -7 82 c-4 45 -11 90 -15 101 l-7 20 -139 76 -140 77 -6 45 c-7 48 -16 125 -24 205 l-5 50 41 33 41 32 118 -4 118 -3 41 -33z m516 -1 l40 -30 26 -147 c15 -81 25 -149 23 -151 -1 -1 -36 16 -77 39 l-75 43 -11 75 c-14 94 -12 92 -77 92 l-54 0 1 -27 c0 -16 19 -149 42 -298 l42 -270 58 -9 c32 -4 61 -6 64 -2 5 5 -7 100 -24 189 l-5 27 13 0 c8 0 43 -17 79 -38 l65 -37 16 -99 16 -99 -31 -34 -31 -33 -35 -2 c-19 0 -80 0 -135 1 l-100 2 -43 39 -44 39 -51 351 -51 350 29 30 29 30 130 0 131 -1 40 -30z m522 -7 l41 -37 66 -340 c37 -187 69 -346 71 -353 l5 -13 -38 -39 -37 -38 -130 5 -130 5 -44 38 -43 37 -39 219 c-21 121 -41 237 -44 259 -4 22 -11 60 -16 84 -5 24 -12 68 -16 98 l-5 54 28 30 28 29 130 0 131 -1 42 -37z m509 6 l45 -32 5 -20 c2 -12 18 -77 34 -146 l29 -124 -46 -41 -47 -41 51 -95 c28 -52 72 -134 98 -183 l48 -89 43 -30 c24 -17 44 -34 44 -38 l0 -8 -92 5 c-51 3 -98 7 -103 9 -6 1 -51 79 -100 174 -118 224 -141 230 -96 24 l26 -122 39 -40 40 -41 -102 4 c-56 1 -104 4 -106 7 -2 2 -23 98 -46 214 -23 116 -60 293 -81 395 l-39 185 -32 32 -32 33 188 0 188 0 44 -32z m532 -4 l47 -35 21 -82 c190 -733 174 -655 137 -702 l-27 -34 -166 5 c-91 3 -168 9 -173 13 -4 4 -49 186 -100 404 l-93 397 -34 35 -34 35 188 0 187 0 47 -36z m-1589 -343 c99 -57 111 -60 129 -31 7 11 16 20 21 20 7 0 31 -116 31 -150 l0 -12 -86 47 -86 47 -44 -7 -44 -6 0 -11 c0 -6 -3 -8 -6 -5 -6 6 -33 157 -34 187 l0 14 15 -21 c8 -12 55 -44 104 -72z m1263 -198 c25 -109 45 -199 43 -201 -2 -2 -36 57 -75 130 -40 73 -81 147 -91 164 l-19 32 40 36 c56 50 52 57 102 -161z"/><path d="M6134 1323 c8 -171 17 -313 21 -338 2 -11 4 -41 4 -67 l1 -48 65 0 66 0 -6 58 c-8 78 -35 465 -35 497 l0 25 -61 0 -62 0 7 -127z m69 -175 c9 -133 14 -244 12 -247 -14 -14 -20 31 -35 249 l-15 240 11 0 10 0 17 -242z"/><path d="M6727 1218 c-3 -18 -9 -75 -13 -125 l-7 -93 47 0 46 0 0 18 c0 18 -56 222 -63 229 -3 2 -7 -11 -10 -29z"/><path d="M8242 1432 c-3 -8 1 -44 7 -80 7 -37 31 -168 55 -292 l41 -225 63 -3 62 -3 0 9 c0 7 -37 201 -98 517 l-18 90 -53 0 -53 0 -6 -13z"/><path d="M8756 1413 c4 -14 17 -71 28 -126 25 -116 27 -118 84 -76 l42 31 0 21 c0 12 -8 57 -17 100 l-18 77 -63 0 -62 0 6 -27z"/><path d="M9290 1430 c0 -5 30 -132 66 -282 37 -150 70 -286 73 -303 l7 -30 62 -3 62 -3 0 11 c0 5 -34 147 -76 315 l-76 305 -59 0 -59 0 0 -10z"/></g></svg>